<svg width="679" height="220" viewBox="0 0 679 220" fill="none" xmlns="http://www.w3.org/2000/svg">
<path d="M588.75 8.74992C593.698 12.1892 597.308 16.616 600 21.9999C600.823 28.5056 599.764 33.6099 596 38.9999C591.922 42.9731 588.222 44.7979 582.562 45.3124C577.11 44.8341 573.707 43.0623 570.188 38.9374C566.15 33.5163 566.375 28.6301 567 21.9999C569.137 17.5673 571.874 14.6821 576 11.9999C577.32 11.9999 578.64 11.9999 580 11.9999C580 11.3399 580 10.6799 580 9.99992C575.684 8.36607 572.048 7.70375 567.438 7.68742C566.343 7.67066 565.249 7.6539 564.121 7.63664C560.625 8.04352 558.809 8.91667 556 10.9999C551.547 16.6902 550.875 21.1897 550.867 28.2616C550.866 29.4637 550.865 30.6657 550.863 31.9042C550.867 33.1527 550.871 34.4011 550.875 35.6874C550.871 36.9165 550.867 38.1457 550.863 39.412C550.865 40.6205 550.866 41.829 550.867 43.0741C550.869 44.7074 550.869 44.7074 550.871 46.3737C551.033 50.9284 551.546 55.4649 552 59.9999C574.11 59.9999 596.22 59.9999 619 59.9999C619 60.9899 619 61.9799 619 62.9999C617.298 63.433 617.298 63.433 615.562 63.8749C614.387 64.2462 613.211 64.6174 612 64.9999C608.87 71.2602 611.547 78.6866 613.598 84.8749C613.813 85.5053 614.029 86.1356 614.25 86.7851C615.147 89.4329 616.008 92.091 616.871 94.7499C620.219 105.012 623.63 115.124 628 125C628.78 126.85 629.552 128.704 630.312 130.562C630.639 131.347 630.965 132.133 631.301 132.941C632 135 632 135 632 138C632.66 138 633.32 138 634 138C634.244 136.756 634.487 135.512 634.738 134.23C636.037 128.395 638.099 122.904 640.188 117.312C643.304 108.823 646.275 100.311 649 91.6874C649.435 90.3103 649.435 90.3103 649.88 88.9054C652.354 81.0689 652.354 81.0689 653.25 72.9374C653.276 72.0802 653.302 71.223 653.328 70.3398C653.181 67.9658 653.181 67.9658 651.746 66.2655C649.759 64.8254 648.204 64.3221 645.812 63.8124C644.554 63.5443 643.296 63.2762 642 62.9999C642 62.0099 642 61.0199 642 59.9999C654.21 59.9999 666.42 59.9999 679 59.9999C679 60.9899 679 61.9799 679 62.9999C677.112 63.8137 675.224 64.6275 673.336 65.4413C664.483 71.348 661.733 81.2052 658.125 90.6874C657.479 92.3558 656.832 94.0239 656.184 95.6918C649.722 112.416 643.625 129.278 637.559 146.148C615.191 208.32 615.191 208.32 598.562 216.437C590.912 219.178 581.108 219.451 573.305 217.234C571.25 216.25 571.25 216.25 568 214C567.092 213.422 566.185 212.845 565.25 212.25C560.793 207.793 558.772 203.19 558.562 196.875C558.82 191.268 560.25 187.658 564.375 183.75C568.763 180.825 572.485 179.412 577.875 179.555C583.201 180.671 586.947 184.519 590 188.812C591.699 194.228 591.735 198.878 589.875 204.25C587.604 207.581 585.174 209.531 582 212C582 212.33 582 212.66 582 213C588.877 213.507 594.348 213.249 600 209C607.245 201.89 609.204 190.626 611.812 181.187C612.16 179.969 612.16 179.969 612.514 178.726C612.722 177.943 612.93 177.161 613.145 176.355C613.334 175.661 613.523 174.966 613.718 174.251C614.428 168.58 612.216 163.167 610.418 157.867C610.154 157.085 609.891 156.302 609.619 155.496C606.467 146.263 602.899 137.196 599.312 128.125C598.605 126.328 597.899 124.531 597.192 122.734C596.132 120.038 595.071 117.341 594.008 114.646C591.88 109.248 589.774 103.843 587.688 98.4296C587.191 97.1468 586.695 95.8641 586.198 94.5815C585.307 92.2776 584.42 89.9721 583.538 87.6645C581.388 82.1353 579.042 76.951 576.022 71.8398C575 69.9999 575 69.9999 574 66.9999C570.324 64.2142 565.671 64.5509 561.25 64.3749C560.457 64.3362 559.664 64.2976 558.848 64.2577C556.899 64.1638 554.949 64.0808 553 63.9999C553.038 75.7269 553.098 87.4535 553.184 99.1802C553.223 104.626 553.256 110.071 553.271 115.517C553.286 120.776 553.321 126.034 553.368 131.292C553.383 133.295 553.391 135.298 553.392 137.301C553.394 140.114 553.421 142.926 553.454 145.738C553.449 146.56 553.444 147.383 553.439 148.23C553.555 154.729 555.31 160.125 559.812 164.937C562.813 166.395 565.702 166.683 569 167C569 167.99 569 168.98 569 170C534.35 170 499.7 170 464 170C464 169.01 464 168.02 464 167C465.986 166.447 467.971 165.893 469.957 165.34C473.016 163.334 473.929 160.37 475 157C475.44 153.494 475.44 153.494 475.372 149.83C475.376 149.151 475.38 148.472 475.383 147.773C475.391 145.549 475.378 143.325 475.363 141.101C475.363 139.541 475.363 137.981 475.365 136.421C475.365 133.158 475.354 129.895 475.336 126.632C475.314 122.47 475.313 118.31 475.32 114.148C475.323 110.927 475.316 107.707 475.307 104.486C475.303 102.953 475.302 101.42 475.303 99.8864C475.572 84.4989 475.572 84.4989 469 70.9999C467.684 69.9767 466.356 68.9686 465 67.9999C465 67.3399 465 66.6799 465 65.9999C466.088 65.7576 467.176 65.5152 468.297 65.2655C478.971 62.8491 489.361 60.3727 499.188 55.4235C500.089 54.9705 500.99 54.5174 501.918 54.0507C502.949 53.5306 502.949 53.5306 504 52.9999C504.006 54.26 504.012 55.5201 504.018 56.8184C504.075 68.7067 504.148 80.5948 504.236 92.4829C504.28 98.5943 504.32 104.706 504.346 110.817C504.372 116.718 504.413 122.618 504.463 128.518C504.48 130.767 504.491 133.015 504.498 135.264C504.507 138.419 504.535 141.574 504.568 144.728C504.566 145.653 504.565 146.578 504.563 147.532C504.655 153.922 505.256 160.256 510 165C512.332 165.395 512.332 165.395 514.938 165.375C515.813 165.403 516.688 165.432 517.59 165.461C520.133 165.216 520.133 165.216 521.754 163.164C524.395 158.578 524.171 154.167 524.205 149.03C524.215 148.113 524.225 147.196 524.235 146.251C524.267 143.215 524.292 140.18 524.316 137.144C524.337 135.041 524.358 132.938 524.379 130.835C524.435 125.296 524.484 119.758 524.532 114.219C524.582 108.569 524.638 102.918 524.693 97.2675C524.801 86.1783 524.902 75.0892 525 63.9999C520.71 63.9999 516.42 63.9999 512 63.9999C512 62.6799 512 61.3599 512 59.9999C516.29 59.9999 520.58 59.9999 525 59.9999C524.977 58.6606 524.954 57.3212 524.93 55.9413C524.911 54.1484 524.893 52.3554 524.875 50.5624C524.858 49.6839 524.841 48.8054 524.824 47.9003C524.73 35.1745 528.424 23.5614 537.312 14.0624C552.648 0.23609 571.116 -1.9889 588.75 8.74992Z" fill="#040605"/>
<path d="M137 20.9999C151.958 33.7597 161.268 52.5929 164 71.9999C164.283 75.88 164.334 79.7355 164.312 83.6249C164.307 84.6767 164.301 85.7285 164.295 86.8121C163.9 112.396 154.225 134.641 135.851 152.516C119.586 166.686 98.5515 174.023 76.9842 173.285C55.0555 171.716 35.0631 162.008 20.6156 145.41C10.7631 133.463 4.94229 119.142 1.99987 104C1.81811 103.122 1.63636 102.244 1.44909 101.34C-1.07865 82.5466 0.849761 62.7963 9.99987 45.9999C10.5142 45.0163 11.0285 44.0328 11.5585 43.0194C23.4431 21.3636 42.6452 9.43419 65.5702 2.1874C90.7082 -4.11901 117.645 4.80059 137 20.9999ZM50.0546 20.1054C34.0317 39.7004 32.1294 65.8001 34.3163 90.0858C37.3006 113.584 44.9958 136.996 61.9999 154C62.5864 154.586 63.1729 155.173 63.7772 155.777C71.7802 163.178 81.0991 166.481 91.8983 166.336C101.884 165.254 110.529 160.613 117 153C128.625 136.998 131.393 118.108 131.312 98.8124C131.311 98.1308 131.309 97.4492 131.308 96.747C131.266 86.1688 130.557 76.282 128 65.9999C127.733 64.7508 127.466 63.5017 127.191 62.2147C122.8 43.3441 112.265 24.1137 95.6092 13.4726C93.4325 12.2292 91.2676 11.0676 88.9999 9.9999C87.8397 9.44882 87.8397 9.44882 86.6561 8.88661C72.7309 4.23804 59.4904 9.89265 50.0546 20.1054Z" fill="#040404"/>
<path d="M169 60C182.53 60 196.06 60 210 60C210.026 65.9593 210.052 71.9187 210.078 78.0586C210.103 81.8457 210.13 85.6328 210.16 89.4199C210.208 95.4241 210.252 101.428 210.271 107.432C210.286 112.276 210.321 117.119 210.368 121.963C210.383 123.806 210.391 125.649 210.392 127.492C209.976 142.462 209.976 142.462 217.062 155.062C223.112 156.993 229.513 157.018 235.375 154.438C240.323 151.593 243.219 147.342 245 142C245.114 139.922 245.169 137.841 245.193 135.76C245.217 133.826 245.217 133.826 245.242 131.854C245.253 130.443 245.264 129.032 245.273 127.621C245.281 126.552 245.281 126.552 245.29 125.461C245.316 121.682 245.336 117.903 245.35 114.125C245.363 111.012 245.391 107.9 245.432 104.788C245.482 101.017 245.506 97.247 245.513 93.476C245.52 92.0468 245.535 90.6176 245.559 89.1885C245.695 80.6295 245.456 72.9983 240 66C237.622 64.3915 235.81 63.7715 233 63C233 62.01 233 61.02 233 60C246.53 60 260.06 60 274 60C274.026 66.7534 274.052 73.5068 274.078 80.4648C274.103 84.7533 274.13 89.0417 274.16 93.3301C274.208 100.131 274.253 106.932 274.271 113.733C274.286 119.218 274.321 124.703 274.368 130.189C274.383 132.277 274.391 134.366 274.392 136.455C274.394 139.39 274.421 142.323 274.454 145.258C274.449 146.114 274.444 146.969 274.439 147.851C274.541 153.82 275.783 158.9 279 164C282.188 166.125 284.265 166.502 288 167C288 167.99 288 168.98 288 170C274.14 170 260.28 170 246 170C245.67 164.39 245.34 158.78 245 153C244.175 154.196 243.35 155.393 242.5 156.625C236.726 164.243 229.413 169.059 220 171C209.878 172.126 199.379 172.581 191 166C185.363 160.731 182.403 154.032 181.639 146.393C181.532 142.895 181.487 139.413 181.514 135.914C181.532 133.575 181.524 131.236 181.51 128.897C181.48 123.091 181.493 117.286 181.505 111.48C181.513 106.559 181.505 101.638 181.476 96.7165C181.469 94.4286 181.485 92.1418 181.503 89.854C181.501 80.7704 181.168 72.1675 174.438 65.4375C171.993 63.8814 171.993 63.8814 169 63C169 62.01 169 61.02 169 60Z" fill="#030403"/>
<path d="M437 24C438.32 24 439.64 24 441 24C441 35.88 441 47.76 441 60C448.59 60 456.18 60 464 60C464 61.65 464 63.3 464 65C456.41 65 448.82 65 441 65C441.04 75.9792 441.097 86.958 441.184 97.937C441.223 103.035 441.256 108.133 441.271 113.231C441.286 118.153 441.321 123.074 441.368 127.995C441.383 129.871 441.391 131.748 441.392 133.624C441.394 136.255 441.421 138.885 441.454 141.516C441.449 142.289 441.444 143.063 441.439 143.859C441.538 149.031 442.715 152.021 446 156C449.064 157.532 451.617 157.229 455 157C458.226 155.46 460.608 153.644 463 151C464.485 151.495 464.485 151.495 466 152C465.107 157.802 461.3 162.357 456.723 165.832C456.154 166.217 455.586 166.603 455 167C454.421 167.396 453.842 167.791 453.246 168.199C447.988 171.132 442.831 171.415 436.938 171.5C436.182 171.518 435.426 171.537 434.647 171.556C429.008 171.494 424.69 170.172 420 167C417.977 164.922 417.977 164.922 416.625 162.75C416.164 162.044 415.702 161.337 415.227 160.609C412.258 154.293 411.709 148.147 411.773 141.289C411.773 140.459 411.772 139.629 411.772 138.773C411.773 136.057 411.789 133.341 411.805 130.625C411.808 128.731 411.811 126.836 411.813 124.942C411.821 119.977 411.84 115.013 411.863 110.048C411.883 104.973 411.892 99.8988 411.902 94.8242C411.924 84.8828 411.958 74.9414 412 65C407.05 65 402.1 65 397 65C397 63.68 397 62.36 397 61C397.955 60.6481 398.91 60.2962 399.895 59.9336C415.096 54.1898 426.907 47.3531 434.836 32.7461C436.077 29.8181 436.603 27.1459 437 24Z" fill="#070807"/>
<path d="M87 179C88.7634 179.42 88.7634 179.42 90.5625 179.848C97.7078 181.627 104.409 183.82 111.152 186.77C115.688 188.729 120.316 190.43 125 192C126.576 192.54 126.576 192.54 128.184 193.09C132.936 194.223 137.381 194.384 142.25 194.375C143.181 194.373 144.112 194.372 145.071 194.37C152.01 194.246 157.817 193.329 164 190C165.072 189.443 166.145 188.886 167.25 188.313C170.581 185.511 172.958 182.357 175.484 178.828C176.235 177.923 176.235 177.923 177 177C177.66 177 178.32 177 179 177C178.473 188.591 171.2 198.333 163 206C149.436 217.574 133.27 220.326 116 219C101.533 216.493 88.5843 207.534 76.3411 199.857C63.3836 191.771 50.5623 187.3 35.1289 190.617C29.1154 192.792 24.3061 196.514 19.3477 200.488C18.5729 200.987 17.7982 201.486 17 202C16.01 201.67 15.02 201.34 14 201C20.5782 190.564 30.5876 184.244 42 180C42.8534 179.68 43.7067 179.361 44.5859 179.031C57.5493 175.02 73.9415 175.561 87 179Z" fill="#050605"/>
<path d="M493 12C498.279 14.1117 501.496 16.8504 504 22C504.806 27.3295 504.902 33.0679 502.5 38C498.873 42.3517 495.298 44.4586 489.691 45.3789C484.32 45.6597 481.168 44.5867 477 41C472.748 36.2753 470.438 32.6974 470.621 26.1563C471.552 20.8589 474.831 17.1131 478.625 13.5C483.5 11.3332 487.752 11.1377 493 12Z" fill="#050605"/>
<path d="M671 146C674.586 148.212 676.391 150.157 678 154C678.737 158.71 678.422 162.17 676.25 166.437C673.567 169.493 671.652 170.741 667.633 171.371C663.305 171.486 660.01 171.562 656.5 168.812C653.279 165.188 652.233 162.823 651.625 158.062C652.263 152.856 654.889 150.007 658.688 146.562C663.115 144.474 666.342 144.651 671 146Z" fill="#080908"/>
<path fill-rule="evenodd" clip-rule="evenodd" d="M343.375 58.5001C334.734 58.3467 326.859 60.0352 319.428 63.2628C322.934 56.3642 328.625 49.3847 336.5 42.3242C350.172 30.4753 362.249 22.5 372.73 18.3984L367.262 7.46094C349.033 10.1953 331.259 21.5885 313.941 41.6406C298.611 58.9877 290.067 79.1917 288.307 102.253C288.088 103.626 287.925 105.016 287.82 106.421C286.852 125.385 288.887 142.645 302.133 157.371C311.52 166.27 323.164 171.729 336.141 172.211C353.376 172.496 369.96 167.732 382.75 155.813C392.973 144.994 397.106 131.611 397.415 116.993L397.438 113.813C397.584 99.4666 393.852 83.8688 383.75 73.0626C372.68 63.3211 361.287 58.903 346.706 58.5389L343.375 58.5001ZM364.993 111.228C362.507 95.762 356.868 78.0538 343.717 68.3599C333.911 65.4279 325.632 66.9781 319.757 75.5566C311.787 89.2036 313.344 106.655 316.953 121.463L317.475 123.554C320.091 134.355 322.872 144.746 328.888 154.218C332.696 159.157 336.191 162.118 342.516 162.965C348.047 163.113 352.993 162.936 357.502 159.426C364.271 151.919 365.975 142.7 366 132.881L365.935 129.502C365.869 123.39 365.779 117.298 364.993 111.228Z" fill="#040504"/>
</svg>
